# xmcd CD database file
#
# Track frame offsets:
#	150
#	12673
#	26835
#	39672
#	53124
#	64228
#	75860
#	91999
#	111769
#	125275
#	138971
#	153072
#	167213
#	180499
#	194073
#	207120
#	220839
#	235318
#	249426
#	263954
#	278613
#	293193
#	306786
#	320781
#	334643
#
# Disc length: 4647 seconds
#
# Revision: 1
# Processed by: cddbd v1.5.2PL0 Copyright (c) Steve Scherf et al.
# Submitted via: CDex 1.51
#
DISCID=67122519
DTITLE=Val McDermid - Ein kalter Strom
DYEAR=2007
DGENRE=Hörbuch
TTITLE0=053 Ein kalter Strom
TTITLE1=054 Ein kalter Strom
TTITLE2=055 Ein kalter Strom
TTITLE3=056 Ein kalter Strom
TTITLE4=057 Ein kalter Strom
TTITLE5=058 Ein kalter Strom
TTITLE6=059 Ein kalter Strom
TTITLE7=060 Ein kalter Strom
TTITLE8=061 Ein kalter Strom
TTITLE9=062 Ein kalter Strom
TTITLE10=063 Ein kalter Strom
TTITLE11=064 Ein kalter Strom
TTITLE12=065 Ein kalter Strom
TTITLE13=066 Ein kalter Strom
TTITLE14=067 Ein kalter Strom
TTITLE15=068 Ein kalter Strom
TTITLE16=069 Ein kalter Strom
TTITLE17=070 Ein kalter Strom
TTITLE18=071 Ein kalter Strom
TTITLE19=072 Ein kalter Strom
TTITLE20=073 Ein kalter Strom
TTITLE21=074 Ein kalter Strom
TTITLE22=075 Ein kalter Strom
TTITLE23=076 Ein kalter Strom
TTITLE24=077 Ein kalter Strom
EXTD=gelesen von Elke Schützhold YEAR: 2007
EXTT0=
EXTT1=
EXTT2=
EXTT3=
EXTT4=
EXTT5=
EXTT6=
EXTT7=
EXTT8=
EXTT9=
EXTT10=
EXTT11=
EXTT12=
EXTT13=
EXTT14=
EXTT15=
EXTT16=
EXTT17=
EXTT18=
EXTT19=
EXTT20=
EXTT21=
EXTT22=
EXTT23=
EXTT24=
PLAYORDER=
